<svg id="Layer_1" data-name="Layer 1" xmlns="http://www.w3.org/2000/svg" viewBox="0 0 100 99.81"><defs><style>.cls-1{fill:#fff;}.cls-2{fill:#cbc6cd;}.cls-3{fill:#c4ff00;}.cls-4{fill:none;stroke:#c2d72e;stroke-width:1.55px;}.cls-5{fill:#143886;}</style></defs><title>tuhu.logo</title><rect class="cls-1" x="-0.04" y="0.18" width="99.91" height="99.54" rx="14.9" ry="14.9"/><path class="cls-2" d="M93.86,72.47v-55s0-11.28-11.28-11.28H17.42S6.14,6.22,6.14,17.49V72.68c9.23-8.14,25.45-13.55,44-13.55,18.37,0,34.48,5.33,43.75,13.35"/><path class="cls-3" d="M69.64,34.13a8.53,8.53,0,1,0-8.54-8.53,8.53,8.53,0,0,0,8.54,8.53"/><circle class="cls-4" cx="69.64" cy="25.59" r="8.53"/><path class="cls-3" d="M29.95,34.13a8.53,8.53,0,1,0-8.54-8.53,8.53,8.53,0,0,0,8.54,8.53"/><circle class="cls-4" cx="29.95" cy="25.59" r="8.53"/><path class="cls-5" d="M69.93,31.83a6,6,0,1,1,6-6,6,6,0,0,1-6,6m-39.85,0a6,6,0,1,1,6-6,6,6,0,0,1-6,6M69.93,15.5a10.35,10.35,0,0,0-9.1,5.44l0,0L50.41,41.65l-11.33-21,0,0a10.34,10.34,0,1,0,.32,9.64l11.2,20.71L60.78,30.66A10.34,10.34,0,1,0,69.93,15.5"/><path class="cls-5" d="M42.47,81.42a13.55,13.55,0,0,1-.18,3.43c-.25.58-1.56,1.21-3.84,1.21s-3.61-.61-3.87-1.22a13.29,13.29,0,0,1-.18-3.42V72.84L30,74.32v8.55a7.68,7.68,0,0,0,1,4.52c1.41,2.08,3.91,3.13,7.43,3.13,3.69,0,6.15-1,7.55-3.07a8,8,0,0,0,1-4.57V72.65l-4.4,1.88Z"/><path class="cls-5" d="M22.32,86.14c-.75,0-.81-.2-.88-.4a14.48,14.48,0,0,1-.19-3V77.84h5.29v-4.4H21.25V68.67l-4.3,1.66,0,3.11H15.11v4.4h1.77v5a17.55,17.55,0,0,0,.23,3.78,5,5,0,0,0,5.16,3.92,16.92,16.92,0,0,0,4.06-.71l1.08-.34V84.74l-2.09.77a10.56,10.56,0,0,1-3,.63"/><path class="cls-5" d="M59.13,73.13a10.34,10.34,0,0,0-4.72,1.07V66L50,67.47V90.21h4.4V80.78a2.47,2.47,0,0,1,.35-1.44,5.62,5.62,0,0,1,4.34-1.83c1.62,0,2.79.35,3.18.93.19.29.37.7.37,2.2v9.57h4.4V80.5a7.65,7.65,0,0,0-.88-4.18c-1.21-2.05-3.71-3.18-7-3.18"/><path class="cls-5" d="M82.5,72.46v9a13.61,13.61,0,0,1-.18,3.43c-.25.58-1.56,1.21-3.84,1.21s-3.61-.6-3.87-1.22a13.29,13.29,0,0,1-.18-3.41v-7.1L70,72.84v10a7.68,7.68,0,0,0,1,4.52c1.41,2.07,3.91,3.13,7.43,3.13,3.68,0,6.15-1,7.55-3.07a8,8,0,0,0,1-4.57V74.71Z"/></svg>